<?xml version="1.0" encoding="UTF-8"?>
<svg width="100" height="100" viewBox="0 0 100 100" xmlns="http://www.w3.org/2000/svg">
  <path d="M50 5C25.1 5 5 25.1 5 50s20.1 45 45 45 45-20.1 45-45S74.9 5 50 5zm0 80c-19.3 0-35-15.7-35-35s15.7-35 35-35 35 15.7 35 35-15.7 35-35 35z" fill="#3498db"/>
  <path d="M75 45H55V25c0-2.8-2.2-5-5-5s-5 2.2-5 5v25c0 2.8 2.2 5 5 5h25c2.8 0 5-2.2 5-5s-2.2-5-5-5z" fill="#3498db"/>
  <path d="M65 70c0 2.8-2.2 5-5 5H30c-2.8 0-5-2.2-5-5s2.2-5 5-5h30c2.8 0 5 2.2 5 5z" fill="#3498db"/>
</svg>